HIERARCHY
ROOT root
{
	OFFSET	0	13.1	24.9
	CHANNELS 6  Xposition Yposition Zposition Xrotation Yrotation Zrotation
	JOINT spine_1
	{
		OFFSET	0	9.99999	0
		CHANNELS 3  Xrotation Yrotation Zrotation
		JOINT spine_2
		{
			OFFSET	0	112	-10
			CHANNELS 3  Xrotation Yrotation Zrotation
			JOINT spine_3
			{
				OFFSET	0	206.5	19.3
				CHANNELS 3  Xrotation Yrotation Zrotation
				JOINT spine_4
				{
					OFFSET	0	110.4	14.6
					CHANNELS 3  Xrotation Yrotation Zrotation
					JOINT neck_1
					{
						OFFSET	0	71.8	-50.3
						CHANNELS 3  Xrotation Yrotation Zrotation
						JOINT neck_2
						{
							OFFSET	0	86.2	-25.8
							CHANNELS 3  Xrotation Yrotation Zrotation
							JOINT head_ee
							{
								OFFSET	0	179.8	-8.7
								CHANNELS 3  Xrotation Yrotation Zrotation
								End Site
								{
									OFFSET	1	0	0
								}
							}
						}
					}
					JOINT left_clavicle
					{
						OFFSET	-43.2	22.4	-70.8
						CHANNELS 3  Xrotation Yrotation Zrotation
						JOINT left_shoulder
						{
							OFFSET	-93.9	-5.79999	48.7
							CHANNELS 3  Xrotation Yrotation Zrotation
							JOINT left_elbow
							{
								OFFSET	-291.4	-30.8	15.2
								CHANNELS 3  Xrotation Yrotation Zrotation
								JOINT left_lowarm_twist
								{
									OFFSET	-110.7	-3.89999	13.6
									CHANNELS 3  Xrotation Yrotation Zrotation
									JOINT left_hand
									{
										OFFSET	-110.7	-3.89999	13.6
										CHANNELS 3  Xrotation Yrotation Zrotation
										JOINT left_ee
										{
											OFFSET	-80.8	-5.10001	12.1
											CHANNELS 3  Xrotation Yrotation Zrotation
											End Site
											{
												OFFSET	1	0	0
											}
										}
									}
								}
							}
						}
					}
					JOINT right_clavicle
					{
						OFFSET	43.2	22.4	-70.8
						CHANNELS 3  Xrotation Yrotation Zrotation
						JOINT right_shoulder
						{
							OFFSET	93.9	-5.79999	48.7
							CHANNELS 3  Xrotation Yrotation Zrotation
							JOINT right_elbow
							{
								OFFSET	291.4	-30.8	15.2
								CHANNELS 3  Xrotation Yrotation Zrotation
								JOINT right_lowarm_twist
								{
									OFFSET	110.7	-3.89999	13.6
									CHANNELS 3  Xrotation Yrotation Zrotation
									JOINT right_hand
									{
										OFFSET	110.7	-3.89999	13.6
										CHANNELS 3  Xrotation Yrotation Zrotation
										JOINT right_ee
										{
											OFFSET	80.8	-5.10001	12.1
											CHANNELS 3  Xrotation Yrotation Zrotation
											End Site
											{
												OFFSET	1	0	0
											}
										}
									}
								}
							}
						}
					}
				}
			}
		}
	}
	JOINT left_hip
	{
		OFFSET	-82.8	-127.5	0.300001
		CHANNELS 3  Xrotation Yrotation Zrotation
		JOINT left_knee
		{
			OFFSET	-28.2	-396.7	2.2
			CHANNELS 3  Xrotation Yrotation Zrotation
			JOINT left_ankle
			{
				OFFSET	-11.7	-411.3	35.4
				CHANNELS 3  Xrotation Yrotation Zrotation
				JOINT left_toes
				{
					OFFSET	0	-60	-88.6
					CHANNELS 3  Xrotation Yrotation Zrotation
					JOINT left_foot_ee
					{
						OFFSET	-22.5	-16.5	-42.2
						CHANNELS 3  Xrotation Yrotation Zrotation
						End Site
						{
							OFFSET	1	0	0
						}
					}
				}
			}
		}
	}
	JOINT right_hip
	{
		OFFSET	82.8	-127.5	0.300001
		CHANNELS 3  Xrotation Yrotation Zrotation
		JOINT right_knee
		{
			OFFSET	28.2	-396.7	2.2
			CHANNELS 3  Xrotation Yrotation Zrotation
			JOINT right_ankle
			{
				OFFSET	11.7	-411.3	35.4
				CHANNELS 3  Xrotation Yrotation Zrotation
				JOINT right_toes
				{
					OFFSET	0	-60	-88.6
					CHANNELS 3  Xrotation Yrotation Zrotation
					JOINT right_foot_ee
					{
						OFFSET	22.5	-16.5	-42.2
						CHANNELS 3  Xrotation Yrotation Zrotation
						End Site
						{
							OFFSET	1	0	0
						}
					}
				}
			}
		}
	}
}
MOTION
Frames: 10
Frame Time: 0.02
1251.60483754 722.852 -1805.67077016 -16.2410614692 8.49647310168 1.50780647897 7.63879 0.617222 1.79692 7.64045 0.501649 1.83254 7.65365 0.357221 1.86607 7.64938 0.647402 1.78627 -16.0125 4.74581 -6.79559 -16.0512 13.0137 -4.73868 -0.0 0.0 -0.0 -3.39901 23.5313 -1.93026 -64.1567 -78.9211 26.7632 0.337808 -9.50005 0.0280699 -4.74801 -0.191294 0.575816 -12.2876 33.6914 -67.1091 -0.0 0.0 -0.0 9.47423 21.15 -18.1408 -14.7334 39.766 -72.0431 0.886202 23.7011 -0.185957 -67.4479 6.22084 -5.27206 -8.96878 -30.4566 39.3384 0.0 0.0 0.0 48.3283 8.92411 -2.4719 -65.7812 -2.85551 9.13017 6.40402 28.6797 -0.983693 0.28029 -0.0 -0.0 -0.0 0.0 -0.0 30.8778 10.4929 -5.44982 -17.1709 -0.31859 -2.60593 30.4176 -7.15748 3.93321 0.537554 -0.0 -0.0 0.0 0.0 0.0 
1233.87593824 728.517 -1820.44973255 -16.7180277393 13.555785928 2.86811627774 7.77376 0.602593 1.80933 7.77545 0.48626 1.844 7.78814 0.345383 1.87548 7.78379 0.637199 1.79744 -17.1437 4.88414 -6.68192 -17.2134 13.1039 -4.4567 -0.0 0.0 -0.0 -3.53914 23.534 -2.1226 -67.8541 -77.0439 24.0958 0.338015 -9.50578 0.0281042 -4.75034 -0.1914 0.576095 -12.2799 33.6549 -67.1187 -0.0 0.0 -0.0 9.33893 20.8699 -17.8617 -15.0614 39.7677 -69.4339 0.890262 23.7977 -0.187592 -66.9713 6.16025 -5.26481 -8.98441 -30.5576 39.3181 0.0 0.0 0.0 52.0301 9.04148 -4.90642 -65.3225 -2.80128 9.08461 5.94051 28.7013 -0.91376 -0.428957 0.0 0.0 -0.0 0.0 -0.0 28.0627 11.0161 -3.31376 -18.0663 -0.313642 -2.74322 32.5629 -6.87169 4.15645 0.563181 -0.0 -0.0 0.0 0.0 0.0 
1211.82449007 723.754 -1829.35267843 -17.1785095037 19.0716186386 4.32825225055 7.76426 0.594687 1.82723 7.76599 0.477231 1.86135 7.77848 0.334745 1.89216 7.77403 0.629327 1.81559 -17.5722 5.30394 -5.99033 -17.6879 13.4866 -3.59898 -0.0 0.0 -0.0 -4.03093 23.5673 -2.79304 -65.886 -75.7789 31.0335 0.217627 -6.15323 0.0116972 -4.3684 -0.174249 0.530373 -12.3225 33.5148 -68.5884 -0.0 0.0 -0.0 9.27158 20.4907 -17.7413 -15.4091 39.7851 -67.412 0.88859 23.7579 -0.186918 -66.6564 6.12025 -5.25974 -9.00441 -30.6253 39.375 0.0 0.0 0.0 55.0036 7.80129 -5.57207 -64.9837 -2.76148 9.05069 5.86517 29.2737 -0.90579 -0.921494 0.0 0.0 -0.0 0.0 -0.0 25.9398 10.8458 -2.84866 -18.6315 -0.309414 -2.82983 34.9648 -4.66918 4.39555 0.0748667 -0.0 -0.0 0.0 0.0 0.0 
1167.8625687 724.834 -1840.10545173 -18.3292092037 25.3365714408 6.68803949892 7.91427 0.568422 1.80737 7.91598 0.452283 1.83986 7.92746 0.316342 1.86803 7.92311 0.607346 1.79467 -17.8097 5.5464 -5.59958 -17.9512 13.7181 -3.11101 -0.0 0.0 -0.0 -4.1471 23.3764 -2.99793 -63.8819 -74.9996 36.2867 0.163016 -4.61692 0.00657148 -4.0537 -0.160347 0.492617 -12.3325 33.4263 -69.2206 -0.0 0.0 -0.0 9.44283 20.2151 -18.1432 -15.456 40.0208 -66.1312 0.889941 23.79 -0.187463 -66.472 6.09685 -5.25667 -9.01255 -30.6178 39.4457 0.0 0.0 0.0 57.2439 7.45189 -5.16773 -64.7493 -2.73405 9.02708 5.8089 29.5506 -0.898921 -1.26067 0.0 0.0 -0.0 0.0 -0.0 24.4719 10.7749 -2.55484 -18.9727 -0.306448 -2.8821 36.6387 -3.12043 4.55829 -0.291536 0.0 0.0 0.0 0.0 0.0 
1132.3700564 725.603 -1849.23212536 -19.6980618371 29.3940706942 8.96210599232 8.16203 0.312529 1.40818 8.1631 0.222299 1.42521 8.1667 0.123242 1.43716 8.16399 0.348646 1.39967 -17.7947 5.96727 -4.19197 -17.9756 13.7593 -1.62963 -0.0 0.0 -0.0 -4.38676 23.3716 -3.3317 -61.6207 -74.2002 40.9346 0.203521 -5.75716 0.0102337 -4.3662 -0.174151 0.53011 -12.345 33.8039 -67.7333 -0.0 0.0 -0.0 9.38984 17.6527 -18.1996 -15.6073 40.2077 -64.9896 0.824213 22.2096 -0.161779 -68.0931 6.30293 -5.28107 -9.15022 -30.7733 40.263 0.0 0.0 0.0 58.1552 6.67483 -5.46022 -59.5828 -2.15511 8.47932 4.09091 27.7781 -0.628566 -3.38807 0.0 0.0 -0.0 0.0 -0.0 23.3567 10.7069 -2.44934 -19.2146 -0.304156 -2.91916 36.8697 -2.25577 4.58301 -1.06698 0.0 0.0 0.0 0.0 0.0 
1106.50738577 726.448 -1856.45207613 -20.6309079767 31.7156215649 10.9404762331 8.35468 0.120506 1.17789 8.35545 0.0453154 1.18317 8.35502 -0.0327373 1.18358 8.3531 0.154585 1.1739 -18.4233 6.10937 -3.34795 -18.6284 13.546 -0.710967 -0.0 0.0 -0.0 -4.32601 22.9612 -3.34522 -56.2092 -72.7757 48.0141 0.218766 -6.18518 0.0118196 -4.12298 -0.163389 0.500936 -12.2121 33.6178 -66.0237 -0.0 0.0 -0.0 9.35046 15.9329 -18.2094 -14.0522 40.5283 -64.3119 0.80436 21.725 -0.154352 -69.4684 6.4782 -5.29717 -9.41156 -30.7112 42.3668 0.0 0.0 0.0 58.5462 6.26238 -5.42081 -53.7306 -1.56236 7.79956 2.91944 27.0136 -0.447789 -4.91801 0.0 0.0 -0.0 0.0 -0.0 22.2793 10.1765 -2.98671 -19.3879 -0.302419 -2.94568 36.1528 -1.75738 4.51823 -2.38455 0.0 0.0 0.0 0.0 0.0 
1081.75842985 718.755 -1861.41909044 -22.0580884151 33.07497683 12.2641989654 8.66501 0.125366 0.966273 8.66553 0.0636282 0.972291 8.66564 0.00471646 0.974359 8.66434 0.158532 0.961389 -17.8911 5.9451 -2.73702 -18.074 12.9204 -0.268238 -0.0 0.0 -0.0 -4.27154 22.4504 -3.38968 -52.7901 -71.6487 52.0743 0.226091 -6.39057 0.0126217 -3.59481 -0.140448 0.437429 -12.0211 33.2295 -64.2448 -0.0 0.0 -0.0 9.31618 14.6714 -18.1948 -11.3429 40.6692 -62.4301 0.744905 20.2542 -0.133053 -69.9998 6.546 -5.30226 -9.58866 -30.6732 43.8426 0.0 0.0 0.0 59.7753 5.40669 -6.35107 -44.7159 -0.793718 6.64547 -0.135061 26.0488 0.0207456 -7.73906 0.0 0.0 -0.0 0.0 -0.0 20.3572 8.60599 -2.80584 -17.0583 -0.31906 -2.58866 35.6297 -0.906777 4.47341 -4.06393 0.0 0.0 0.0 0.0 0.0 
1072.60263793 718.755 -1854.36404982 -22.4041120476 34.3438861476 12.8876434192 8.66501 0.125366 0.966273 8.66553 0.0636282 0.972291 8.66564 0.00471646 0.974359 8.66434 0.158532 0.961389 -17.8911 5.9451 -2.73702 -18.074 12.9204 -0.268238 -0.0 0.0 -0.0 -4.27154 22.4504 -3.38968 -52.7901 -71.6487 52.0743 0.226091 -6.39057 0.0126217 -3.59481 -0.140448 0.437429 -12.0211 33.2295 -64.2448 -0.0 0.0 -0.0 9.31618 14.6714 -18.1948 -11.3429 40.6692 -62.4301 0.744905 20.2542 -0.133053 -69.9998 6.546 -5.30226 -9.58866 -30.6732 43.8426 0.0 0.0 0.0 59.7753 5.40669 -6.35107 -44.7159 -0.793718 6.64547 -0.135061 26.0488 0.0207456 -7.73906 0.0 0.0 -0.0 0.0 -0.0 20.3572 8.60599 -2.80584 -17.0583 -0.31906 -2.58866 35.6297 -0.906777 4.47341 -4.06393 0.0 0.0 0.0 0.0 0.0 
1064.60053698 721.689 -1858.63384924 -24.0193464162 34.0643270904 14.5373251306 8.78697 0.128993 0.815939 8.78734 0.0768133 0.822493 8.78773 0.0286968 0.825573 8.78681 0.158716 0.810682 -17.5126 6.11726 -1.87708 -17.6945 12.7894 0.558591 -0.0 0.0 -0.0 -4.33228 22.9389 -3.3593 -50.4567 -70.8828 56.4263 0.231184 -6.53332 0.013195 -3.26025 -0.12622 0.397094 -11.9098 33.0926 -62.9748 -0.0 0.0 -0.0 9.2523 12.1593 -18.1508 -9.46488 40.4244 -62.679 0.704263 19.2324 -0.119324 -70.4069 6.59796 -5.30572 -10.07 -31.2874 46.8995 0.0 0.0 0.0 59.76 4.72783 -7.03484 -38.4383 -0.370412 5.77841 -2.24244 22.7513 0.340306 -9.40957 0.0 0.0 -0.0 0.0 -0.0 20.4041 6.65831 -3.39004 -13.6459 -0.317212 -2.06518 35.0599 -0.344231 4.42246 -5.43035 0.0 0.0 0.0 0.0 0.0 
1040.24283008 712.744 -1869.90318351 -26.2946849496 34.6364915552 16.6088104902 9.12702 0.218462 0.858509 9.12741 0.163393 0.870669 9.12907 0.117561 0.878032 9.12808 0.25475 0.84845 -16.4383 6.49659 -1.33623 -16.616 13.222 1.08249 -0.0 0.0 -0.0 -5.89832 22.5164 -5.68927 -43.7396 -70.5968 67.2208 0.252128 -7.11937 0.0156845 -2.54765 -0.0967023 0.310915 -11.8513 32.6742 -63.4686 -0.0 0.0 -0.0 9.25142 8.57844 -18.2263 -7.20168 39.9013 -62.1942 0.705042 19.2521 -0.11958 -70.5534 6.61667 -5.30688 -10.4934 -31.5759 50.2256 0.0 0.0 0.0 60.0255 3.89981 -7.41362 -27.9744 0.116305 4.24898 -4.05176 17.7668 0.605979 -12.8558 0.0 0.0 -0.0 0.0 -0.0 20.3687 5.15589 -3.95444 -11.4036 -0.29903 -1.72165 38.4063 -1.43133 4.72708 -7.31702 0.0 0.0 0.0 0.0 0.0 
